Coordinates
version=1
nRows=29
nColumns=24
inDegrees=yes

Units are S.I. units (second, meters, Newtons, ...)
Angles are in degrees.

endheader
time	pelvis_tilt	pelvis_list	pelvis_rotation	pelvis_tx	pelvis_ty	pelvis_tz	hip_flexion_r	hip_adduction_r	hip_rotation_r	knee_angle_r	ankle_angle_r	subtalar_angle_r	mtp_angle_r	hip_flexion_l	hip_adduction_l	hip_rotation_l	knee_angle_l	ankle_angle_l	subtalar_angle_l	mtp_angle_l	lumbar_extension	lumbar_bending	lumbar_rotation
      1.23316667	     -4.85142149	      5.14164416	     -4.61880774	      0.24750754	      1.01921467	      0.27615181	     25.06859176	     -4.31011756	     -1.60917917	    -69.26954599	     -0.15561872	     -6.09057958	     14.28505276	     13.71047377	      8.60892430	     -3.51849873	     -9.77356049	      5.01575218	     -5.51535340	      3.90054305	     -0.12454169	     -8.44176246	      4.02953721
      1.23733333	     -4.89808146	      4.95687231	     -4.66951212	      0.25260711	      1.01992337	      0.27600542	     25.61091483	     -4.01340699	     -1.48631898	    -68.91942056	      0.33973323	     -6.20983328	     14.22379926	     13.34418475	      8.45152512	     -3.46088069	     -9.61237149	      5.14299708	     -5.50851985	      3.89190536	     -0.18468003	     -8.20229876	      4.00283806
      1.24150000	     -4.93375726	      4.79414908	     -4.73440833	      0.25775004	      1.02062019	      0.27588970	     26.13022900	     -3.73741899	     -1.34952146	    -68.51877705	      0.80055858	     -6.33849022	     14.18761705	     12.94934410	      8.31592062	     -3.42366744	     -9.41080811	      5.26246851	     -5.50836771	      3.88657472	     -0.20906344	     -8.00125619	      3.96215711
      1.24566667	     -4.98154974	      4.61167418	     -4.78185550	      0.26286993	      1.02128239	      0.27575278	     26.64038893	     -3.44398077	     -1.23507829	    -68.05674136	      1.24141914	     -6.44070081	     14.14760156	     12.57768097	      8.16083954	     -3.36787975	     -9.23345335	      5.37738124	     -5.51838623	      3.88011796	     -0.24609520	     -7.76771022	      3.91570177
      1.24983333	     -5.01440067	      4.41442794	     -4.81469949	      0.26796520	      1.02196394	      0.27560235	     27.11106374	     -3.14087720	     -1.13660308	    -67.52875966	      1.65196326	     -6.50649674	     14.07359358	     12.19516701	      7.99463535	     -3.28460033	     -9.06854446	      5.48321368	     -5.53816407	      3.86693078	     -0.32896160	     -7.51649056	      3.84637396
      1.25400000	     -5.01916417	      4.23747490	     -4.84715628	      0.27307006	      1.02264303	      0.27544336	     27.53998203	     -2.86768257	     -1.03991328	    -66.95745674	      2.04797400	     -6.59859205	     13.59038526	     11.76425136	      7.85887578	     -3.15807465	     -8.85601303	      5.55740227	     -5.65201916	      3.77246411	     -0.44452434	     -7.29217585	      3.61846885
      1.25816667	     -5.07470443	      4.04553238	     -4.87065153	      0.27818870	      1.02322007	      0.27528542	     28.00031226	     -2.57693834	     -0.95590880	    -66.32068649	      2.37849151	     -6.66761243	     13.49292917	     11.40770338	      7.69548727	     -3.09338174	     -8.69212001	      5.68547305	     -5.63385092	      3.75283238	     -0.45142723	     -7.04825393	      3.64443901
      1.26233333	     -5.11871484	      3.87772321	     -4.90314706	      0.28329791	      1.02376478	      0.27516214	     28.44011367	     -2.30684426	     -0.85625552	    -65.64494803	      2.72511918	     -6.76481735	     13.45860314	     11.04055794	      7.55564409	     -3.05951661	     -8.52091365	      5.78984654	     -5.64617692	      3.74538679	     -0.47858963	     -6.83969374	      3.60796709
      1.26650000	     -5.14815930	      3.69229096	     -4.91370387	      0.28840390	      1.02431907	      0.27500448	     28.83507378	     -2.03287242	     -0.78601651	    -64.90024599	      3.02444062	     -6.85233071	     13.42077275	     10.65776813	      7.40416498	     -2.98844425	     -8.35294124	      5.90034985	     -5.66048468	      3.73721145	     -0.53600032	     -6.60254136	      3.55648491
      1.27066667	     -5.15423569	      3.49337847	     -4.89799365	      0.29346532	      1.02488643	      0.27481728	     29.18002143	     -1.75976021	     -0.74175054	    -64.08925067	      3.25556714	     -6.95732064	     13.33783529	     10.26035786	      7.24477481	     -2.86475788	     -8.20754452	      5.99888806	     -5.70890722	      3.71742934	     -0.66161210	     -6.36256367	      3.45006266
      1.27483333	     -5.16279181	      3.32053219	     -4.88903096	      0.29856244	      1.02539388	      0.27464948	     29.51379551	     -1.51162465	     -0.68508105	    -63.23512749	      3.47399092	     -7.13303824	     13.12230679	      9.84909965	      7.11491520	     -2.72723693	     -8.02058050	      6.07463574	     -5.81870314	      3.66110848	     -0.76207971	     -6.15573871	      3.25741018
      1.27900000	     -5.19512547	      3.14688158	     -4.86113881	      0.30364515	      1.02582737	      0.27445794	     29.85578646	     -1.27586327	     -0.65191588	    -62.33348004	      3.69277389	     -7.21138121	     13.05097638	      9.48609613	      6.97930055	     -2.62938042	     -7.87956915	      6.18219691	     -5.83885040	      3.64273175	     -0.81787210	     -5.93338252	      3.21722164
      1.28316667	     -5.23957660	      3.00676995	     -4.84202572	      0.30875059	      1.02617257	      0.27428335	     30.20202786	     -1.07251074	     -0.60200976	    -61.39666926	      3.90670841	     -7.33701780	     13.00543151	      9.12796343	      6.87744485	     -2.54409947	     -7.71299134	      6.29434456	     -5.86057593	      3.63156200	     -0.83870852	     -5.74333348	      3.15541907
      1.28733333	     -5.25939611	      2.83362076	     -4.77074377	      0.31381670	      1.02657288	      0.27404363	     30.48025883	     -0.86025496	     -0.60362032	    -60.36888859	      3.98855813	     -7.54096715	     12.46809216	      8.74068963	      6.75755473	     -2.29007745	     -7.54460359	      6.30282835	     -6.09901891	      3.47410504	     -0.94945646	     -5.53938478	      2.84676729
      1.29150000	     -5.26362988	      2.66881825	     -4.71271789	      0.31889550	      1.02693373	      0.27383716	     30.72686168	     -0.65474100	     -0.59544825	    -59.29640785	      4.06369694	     -7.79150975	     12.34694010	      8.35602087	      6.63388828	     -2.18370962	     -7.41664020	      6.45448746	     -6.08091786	      3.44194447	     -1.03928688	     -5.34162643	      2.81748684
      1.29566667	     -5.31097458	      2.53741494	     -4.64577868	      0.32398542	      1.02715696	      0.27360857	     31.01343408	     -0.49469466	     -0.59706714	    -58.20156929	      4.21192302	     -7.95562594	     12.29179704	      8.02122762	      6.54432587	     -2.07768660	     -7.28493239	      6.56709431	     -6.09604444	      3.42825299	     -1.07355624	     -5.15919520	      2.75435690
      1.29983333	     -5.32261703	      2.39607882	     -4.55121959	      0.32903960	      1.02743256	      0.27337957	     31.22617222	     -0.32905992	     -0.60321258	    -57.01773566	      4.15201869	     -8.32221022	     12.11902131	      7.65003816	      6.45093783	     -1.88185823	     -7.15859369	      6.64616960	     -6.19473585	      3.38085174	     -1.17743756	     -5.00665844	      2.53627100
      1.30400000	     -5.36617695	      2.24347639	     -4.43402079	      0.33412374	      1.02761924	      0.27308543	     31.44966519	     -0.18034369	     -0.66283821	    -55.78853970	      4.17278986	     -8.56205660	     12.01084165	      7.32707882	      6.34311834	     -1.71742931	     -7.06560034	      6.75873717	     -6.24736559	      3.35295208	     -1.22316254	     -4.80785781	      2.42561938
      1.30816667	     -5.38301219	      2.13354073	     -4.33085387	      0.33922034	      1.02779618	      0.27284436	     31.63302201	     -0.06342797	     -0.68211163	    -54.51754919	      4.09948863	     -8.94346791	     11.82003820	      6.95243836	      6.28228961	     -1.52364289	     -6.91294310	      6.83537268	     -6.33887261	      3.30121059	     -1.29902186	     -4.68061707	      2.21545672
      1.31233333	     -5.43885157	      2.02441404	     -4.20061215	      0.34431198	      1.02786881	      0.27256565	     31.83623555	      0.03514333	     -0.73449728	    -53.20024975	      4.05092608	     -9.29472518	     11.58072291	      6.63713974	      6.21946777	     -1.32160982	     -6.79597169	      6.90954053	     -6.42839597	      3.23554891	     -1.33899255	     -4.54175793	      2.02396981
      1.31650000	     -5.46607171	      1.91716340	     -4.06022185	      0.34943963	      1.02795612	      0.27225985	     31.98335131	      0.11155685	     -0.81767219	    -51.82616690	      3.93859468	     -9.65250225	     11.37772102	      6.29047246	      6.16085072	     -1.13630869	     -6.68178701	      7.01972047	     -6.49467975	      3.18231233	     -1.38050512	     -4.40501640	      1.86390204
      1.32066667	     -5.51320558	      1.82671039	     -3.90802737	      0.35456631	      1.02797278	      0.27194981	     32.13355267	      0.16553617	     -0.90617023	    -50.40860897	      3.81917318	    -10.02878009	     11.16432405	      5.96961710	      6.11803705	     -0.93864027	     -6.57157727	      7.11282008	     -6.56547090	      3.12627694	     -1.41350383	     -4.28637735	      1.68077732
      1.32483333	     -5.55969969	      1.73851936	     -3.74766636	      0.35970819	      1.02795288	      0.27164010	     32.25876543	      0.20935680	     -1.00815807	    -48.94005417	      3.67557627	    -10.42130859	     10.93054375	      5.64850559	      6.07598496	     -0.73565362	     -6.46301804	      7.20284091	     -6.63509734	      3.06505749	     -1.44714115	     -4.17582925	      1.48658763
      1.32900000	     -5.61597440	      1.66669408	     -3.57655803	      0.36486581	      1.02787698	      0.27132648	     32.37614477	      0.22670233	     -1.12678489	    -47.43100739	      3.52434544	    -10.80589446	     10.68185650	      5.33942819	      6.04960981	     -0.52849389	     -6.35635656	      7.29171552	     -6.70012390	      2.99957299	     -1.45911355	     -4.07913075	      1.29084856
      1.33316667	     -5.67659220	      1.61049818	     -3.39758955	      0.37003884	      1.02775636	      0.27099692	     32.48118745	      0.21923270	     -1.26027766	    -45.89474881	      3.46913488	    -11.10569542	      7.69841765	      5.02325230	      6.04478217	     -0.24558558	     -6.22539613	      7.32396092	     -6.90401565	      2.11585005	     -1.47388003	     -4.00098706	      1.13542796
      1.33733333	     -5.73966811	      1.54873808	     -3.21152363	      0.37524898	      1.02760649	      0.27067583	     32.55871257	      0.20841523	     -1.41762024	    -44.29111095	      3.26840452	    -11.48646051	      7.64821912	      4.73155875	      6.02288242	     -0.09040390	     -6.14458122	      7.46679453	     -6.85828958	      2.10626203	     -1.46986080	     -3.91886221	      0.91590836
      1.34150000	     -5.80809441	      1.50852421	     -3.02085032	      0.38047397	      1.02740268	      0.27035474	     32.62905607	      0.16452798	     -1.60212446	    -42.66234320	      3.10067491	    -11.80123091	      7.58424612	      4.43904695	      6.02406703	      0.08778677	     -6.04721961	      7.57562657	     -6.88246954	      2.09054842	     -1.47033108	     -3.86787816	      0.73210898
      1.34566667	     -5.86654791	      1.48476044	     -2.83335123	      0.38572335	      1.02717860	      0.27005396	     32.66740965	      0.10758323	     -1.77676205	    -40.99241920	      2.91222102	    -12.12429104	      7.48732254	      4.12881861	      6.04224654	      0.27929201	     -5.93685260	      7.65767999	     -6.92776654	      2.06170589	     -1.45998679	     -3.82687675	      0.50948511
      1.34983333	     -5.93461921	      1.46194833	     -2.63305398	      0.39100388	      1.02692227	      0.26973965	     32.69223071	      0.03695623	     -1.98871735	    -39.28325911	      2.74414828	    -12.38354949	      7.36905034	      3.82818143	      6.05977716	      0.47678565	     -5.82792790	      7.73717655	     -6.97603608	      2.02236205	     -1.44199441	     -3.78971550	      0.29645508
